<mxfile host="app.diagrams.net" modified="2023-09-19T09:20:02.667Z" agent="Mozilla/5.0 (Windows NT 10.0; Win64; x64) AppleWebKit/537.36 (KHTML, like Gecko) Chrome/116.0.0.0 Safari/537.36" version="21.7.5" etag="_O6X8cVAeDxbuYKE1m_C" type="github">
  <diagram name="StrÃ¡nka-1" id="PrjjuGS8QdVnNB6OPXh7">
    <mxGraphModel>
      <root>
        <mxCell id="0" />
        <mxCell id="1" parent="0" />
      </root>
    </mxGraphModel>
  </diagram>
</mxfile>
